<svg width="23" height="24" viewBox="0 0 23 24" fill="none" xmlns="http://www.w3.org/2000/svg">
<g clip-path="url(#clip0_32_13)">
<path d="M11.4759 0.774292C5.13789 0.774292 0 5.97351 0 12.3872C0 18.8008 5.13789 24.0001 11.4759 24.0001C17.8139 24.0001 22.9518 18.8008 22.9518 12.3872C22.9518 5.97351 17.8138 0.774292 11.4759 0.774292ZM8.41409 18.0015H5.89445V9.76403H8.41409V18.0015ZM7.14226 8.68528C6.31937 8.68528 5.65228 8.00471 5.65228 7.16533C5.65228 6.32585 6.31947 5.64533 7.14226 5.64533C7.96506 5.64533 8.63216 6.32585 8.63216 7.16533C8.6322 8.00476 7.96511 8.68528 7.14226 8.68528ZM17.8565 18.0015H15.349V13.6775C15.349 12.4916 14.9039 11.8296 13.9772 11.8296C12.9686 11.8296 12.4417 12.519 12.4417 13.6775V18.0015H10.0251V9.76403H12.4417V10.8735C12.4417 10.8735 13.1687 9.51276 14.8947 9.51276C16.6209 9.51276 17.8565 10.5793 17.8565 12.7856L17.8565 18.0015Z" fill="white"/>
</g>
<defs>
<clipPath id="clip0_32_13">
<rect width="22.9518" height="23.2258" fill="white" transform="translate(0 0.77417)"/>
</clipPath>
</defs>
</svg>
