<svg width="22" height="19" viewBox="0 0 22 19" fill="none" xmlns="http://www.w3.org/2000/svg">
<path d="M21.8658 2.92274C21.0814 3.2818 20.2358 3.51776 19.3597 3.6306C20.2562 3.08689 20.9489 2.22514 21.2749 1.189C20.4294 1.70194 19.4922 2.061 18.504 2.26618C17.6992 1.38391 16.5684 0.870972 15.2849 0.870972C12.8909 0.870972 10.9349 2.84067 10.9349 5.27202C10.9349 5.62082 10.9757 5.95937 11.047 6.27739C7.42038 6.09273 4.19105 4.33847 2.04156 1.68142C1.66463 2.32773 1.4507 3.08689 1.4507 3.88708C1.4507 5.41565 2.21474 6.76981 3.39645 7.53923C2.67316 7.53923 2.00081 7.33405 1.40995 7.02629C1.40995 7.02629 1.40995 7.02629 1.40995 7.05706C1.40995 9.19091 2.91765 10.9759 4.91434 11.376C4.5476 11.4786 4.16049 11.5299 3.76319 11.5299C3.48813 11.5299 3.21308 11.4991 2.94821 11.4479C3.49832 13.1816 5.0977 14.4742 7.02308 14.505C5.53575 15.695 3.65113 16.3926 1.59332 16.3926C1.24696 16.3926 0.900593 16.3721 0.55423 16.3311C2.48979 17.5827 4.79209 18.311 7.25738 18.311C15.2849 18.311 19.6959 11.6017 19.6959 5.78496C19.6959 5.59005 19.6959 5.40539 19.6857 5.21047C20.5414 4.59494 21.2749 3.81526 21.8658 2.92274Z" fill="white"/>
</svg>
