<svg width="22" height="22" viewBox="0 0 22 22" fill="none" xmlns="http://www.w3.org/2000/svg">
<path d="M7.01758 0.383423H15.8804C19.2567 0.383423 22 3.14377 22 6.54112V15.4592C22 17.0923 21.3552 18.6585 20.2076 19.8133C19.06 20.9681 17.5034 21.6169 15.8804 21.6169H7.01758C3.64127 21.6169 0.89801 18.8565 0.89801 15.4592V6.54112C0.89801 4.908 1.54275 3.34176 2.69039 2.18697C3.83803 1.03218 5.39457 0.383423 7.01758 0.383423ZM6.80656 2.50677C5.79918 2.50677 4.83305 2.90944 4.12072 3.62621C3.40839 4.34298 3.00821 5.31513 3.00821 6.32879V15.6715C3.00821 17.7842 4.70692 19.4935 6.80656 19.4935H16.0914C17.0988 19.4935 18.0649 19.0909 18.7773 18.3741C19.4896 17.6573 19.8898 16.6852 19.8898 15.6715V6.32879C19.8898 4.21606 18.1911 2.50677 16.0914 2.50677H6.80656ZM16.9883 4.09928C17.3381 4.09928 17.6735 4.23909 17.9209 4.48797C18.1682 4.73685 18.3071 5.0744 18.3071 5.42637C18.3071 5.77833 18.1682 6.11588 17.9209 6.36476C17.6735 6.61364 17.3381 6.75346 16.9883 6.75346C16.6385 6.75346 16.303 6.61364 16.0557 6.36476C15.8083 6.11588 15.6694 5.77833 15.6694 5.42637C15.6694 5.0744 15.8083 4.73685 16.0557 4.48797C16.303 4.23909 16.6385 4.09928 16.9883 4.09928ZM11.449 5.69178C12.8481 5.69179 14.19 6.25106 15.1793 7.24657C16.1687 8.24208 16.7245 9.59228 16.7245 11.0001C16.7245 12.408 16.1687 13.7582 15.1793 14.7537C14.19 15.7492 12.8481 16.3085 11.449 16.3085C10.0499 16.3085 8.70801 15.7492 7.71866 14.7537C6.72931 13.7582 6.1735 12.408 6.1735 11.0001C6.1735 9.59228 6.72931 8.24208 7.71866 7.24657C8.70801 6.25106 10.0499 5.69179 11.449 5.69178ZM11.449 7.81513C10.6095 7.81513 9.8044 8.15069 9.2108 8.748C8.61719 9.34531 8.2837 10.1554 8.2837 11.0001C8.2837 11.8449 8.61719 12.655 9.2108 13.2523C9.8044 13.8496 10.6095 14.1852 11.449 14.1852C12.2885 14.1852 13.0936 13.8496 13.6872 13.2523C14.2808 12.655 14.6143 11.8449 14.6143 11.0001C14.6143 10.1554 14.2808 9.34531 13.6872 8.748C13.0936 8.15069 12.2885 7.81513 11.449 7.81513Z" fill="white"/>
</svg>
